%TF.GenerationSoftware,KiCad,Pcbnew,9.0.4*%
%TF.CreationDate,2025-08-21T15:40:13+02:00*%
%TF.ProjectId,Cosmic_Ray_Detector_PCB,436f736d-6963-45f5-9261-795f44657465,rev?*%
%TF.SameCoordinates,Original*%
%TF.FileFunction,Legend,Top*%
%TF.FilePolarity,Positive*%
%FSLAX46Y46*%
G04 Gerber Fmt 4.6, Leading zero omitted, Abs format (unit mm)*
G04 Created by KiCad (PCBNEW 9.0.4) date 2025-08-21 15:40:13*
%MOMM*%
%LPD*%
G01*
G04 APERTURE LIST*
G04 Aperture macros list*
%AMRoundRect*
0 Rectangle with rounded corners*
0 $1 Rounding radius*
0 $2 $3 $4 $5 $6 $7 $8 $9 X,Y pos of 4 corners*
0 Add a 4 corners polygon primitive as box body*
4,1,4,$2,$3,$4,$5,$6,$7,$8,$9,$2,$3,0*
0 Add four circle primitives for the rounded corners*
1,1,$1+$1,$2,$3*
1,1,$1+$1,$4,$5*
1,1,$1+$1,$6,$7*
1,1,$1+$1,$8,$9*
0 Add four rect primitives between the rounded corners*
20,1,$1+$1,$2,$3,$4,$5,0*
20,1,$1+$1,$4,$5,$6,$7,0*
20,1,$1+$1,$6,$7,$8,$9,0*
20,1,$1+$1,$8,$9,$2,$3,0*%
G04 Aperture macros list end*
%ADD10C,0.150000*%
%ADD11C,0.120000*%
%ADD12RoundRect,0.150000X-0.825000X-0.150000X0.825000X-0.150000X0.825000X0.150000X-0.825000X0.150000X0*%
G04 APERTURE END LIST*
D10*
X143763095Y-77649819D02*
X143763095Y-78459342D01*
X143763095Y-78459342D02*
X143810714Y-78554580D01*
X143810714Y-78554580D02*
X143858333Y-78602200D01*
X143858333Y-78602200D02*
X143953571Y-78649819D01*
X143953571Y-78649819D02*
X144144047Y-78649819D01*
X144144047Y-78649819D02*
X144239285Y-78602200D01*
X144239285Y-78602200D02*
X144286904Y-78554580D01*
X144286904Y-78554580D02*
X144334523Y-78459342D01*
X144334523Y-78459342D02*
X144334523Y-77649819D01*
X144763095Y-77745057D02*
X144810714Y-77697438D01*
X144810714Y-77697438D02*
X144905952Y-77649819D01*
X144905952Y-77649819D02*
X145144047Y-77649819D01*
X145144047Y-77649819D02*
X145239285Y-77697438D01*
X145239285Y-77697438D02*
X145286904Y-77745057D01*
X145286904Y-77745057D02*
X145334523Y-77840295D01*
X145334523Y-77840295D02*
X145334523Y-77935533D01*
X145334523Y-77935533D02*
X145286904Y-78078390D01*
X145286904Y-78078390D02*
X144715476Y-78649819D01*
X144715476Y-78649819D02*
X145334523Y-78649819D01*
X143763095Y-71069819D02*
X143763095Y-71879342D01*
X143763095Y-71879342D02*
X143810714Y-71974580D01*
X143810714Y-71974580D02*
X143858333Y-72022200D01*
X143858333Y-72022200D02*
X143953571Y-72069819D01*
X143953571Y-72069819D02*
X144144047Y-72069819D01*
X144144047Y-72069819D02*
X144239285Y-72022200D01*
X144239285Y-72022200D02*
X144286904Y-71974580D01*
X144286904Y-71974580D02*
X144334523Y-71879342D01*
X144334523Y-71879342D02*
X144334523Y-71069819D01*
X145334523Y-72069819D02*
X144763095Y-72069819D01*
X145048809Y-72069819D02*
X145048809Y-71069819D01*
X145048809Y-71069819D02*
X144953571Y-71212676D01*
X144953571Y-71212676D02*
X144858333Y-71307914D01*
X144858333Y-71307914D02*
X144763095Y-71355533D01*
D11*
%TO.C,U2*%
X144525000Y-79035000D02*
X142575000Y-79035000D01*
X144525000Y-79035000D02*
X146475000Y-79035000D01*
X144525000Y-84155000D02*
X142575000Y-84155000D01*
X144525000Y-84155000D02*
X146475000Y-84155000D01*
X141825000Y-79130000D02*
X141585000Y-78800000D01*
X142065000Y-78800000D01*
X141825000Y-79130000D01*
G36*
X141825000Y-79130000D02*
G01*
X141585000Y-78800000D01*
X142065000Y-78800000D01*
X141825000Y-79130000D01*
G37*
%TO.C,U1*%
X144525000Y-72455000D02*
X142575000Y-72455000D01*
X144525000Y-72455000D02*
X146475000Y-72455000D01*
X144525000Y-77575000D02*
X142575000Y-77575000D01*
X144525000Y-77575000D02*
X146475000Y-77575000D01*
X141825000Y-72550000D02*
X141585000Y-72220000D01*
X142065000Y-72220000D01*
X141825000Y-72550000D01*
G36*
X141825000Y-72550000D02*
G01*
X141585000Y-72220000D01*
X142065000Y-72220000D01*
X141825000Y-72550000D01*
G37*
%TD*%
%LPC*%
D12*
%TO.C,U2*%
X142050000Y-79690000D03*
X142050000Y-80960000D03*
X142050000Y-82230000D03*
X142050000Y-83500000D03*
X147000000Y-83500000D03*
X147000000Y-82230000D03*
X147000000Y-80960000D03*
X147000000Y-79690000D03*
%TD*%
%TO.C,U1*%
X142050000Y-73110000D03*
X142050000Y-74380000D03*
X142050000Y-75650000D03*
X142050000Y-76920000D03*
X147000000Y-76920000D03*
X147000000Y-75650000D03*
X147000000Y-74380000D03*
X147000000Y-73110000D03*
%TD*%
%LPD*%
M02*
